<?xml version="1.0" encoding="UTF-8"?>
<!DOCTYPE svg PUBLIC "-//W3C//DTD SVG 1.1//EN" "http://www.w3.org/Graphics/SVG/1.1/DTD/svg11.dtd">
<svg xmlns="http://www.w3.org/2000/svg" version="1.1" width="200px" height="74px" style="shape-rendering:geometricPrecision; text-rendering:geometricPrecision; image-rendering:optimizeQuality; fill-rule:evenodd; clip-rule:evenodd" xmlns:xlink="http://www.w3.org/1999/xlink">
<g><path style="opacity:0.997" fill="#525b57" d="M 56.5,24.5 C 54.3926,23.5318 52.0593,23.1984 49.5,23.5C 49.5,25.5 49.5,27.5 49.5,29.5C 49.4413,31.7224 48.2747,32.7224 46,32.5C 43.8121,32.646 42.4788,31.646 42,29.5C 41.3333,23.5 41.3333,17.5 42,11.5C 44.2386,8.36889 46.7386,8.03556 49.5,10.5C 50.3928,13.0841 50.7261,15.7508 50.5,18.5C 52.5,18.5 54.5,18.5 56.5,18.5C 56.3359,15.8127 56.5026,13.146 57,10.5C 59.1969,8.26905 61.5302,8.26905 64,10.5C 64.6667,17.1667 64.6667,23.8333 64,30.5C 61.9251,32.6483 59.5918,32.9817 57,31.5C 56.5034,29.1902 56.3367,26.8568 56.5,24.5 Z"/></g>
<g><path style="opacity:0.999" fill="#545d59" d="M 71.5,8.5 C 73.5824,8.47199 75.4157,9.13865 77,10.5C 78.1392,13.5833 79.4725,16.5833 81,19.5C 82.9596,16.4151 84.7929,13.2485 86.5,10C 89.7475,7.86236 92.5808,8.36236 95,11.5C 95.6667,17.8333 95.6667,24.1667 95,30.5C 93.1917,32.3959 91.025,32.8959 88.5,32C 87.7117,28.9243 87.2117,25.7577 87,22.5C 82.2219,33.3195 77.8886,32.9861 74,21.5C 73.6667,24.8333 73.3333,28.1667 73,31.5C 71.5064,32.7472 70.0064,32.7472 68.5,31.5C 67.374,25.2182 67.2073,18.8849 68,12.5C 68.6897,10.6498 69.8564,9.31643 71.5,8.5 Z"/></g>
<g><path style="opacity:0.997" fill="#555e5b" d="M 100.5,8.5 C 106.593,8.1392 112.593,8.6392 118.5,10C 119.833,11.6667 119.833,13.3333 118.5,15C 116.527,15.4955 114.527,15.6621 112.5,15.5C 112.666,20.5111 112.499,25.5111 112,30.5C 109.925,32.6483 107.592,32.9817 105,31.5C 104.501,26.1771 104.334,20.8437 104.5,15.5C 99.0687,16.9064 96.7353,14.9064 97.5,9.5C 98.791,9.73731 99.791,9.40397 100.5,8.5 Z"/></g>
<g><path style="opacity:0.995" fill="#545d59" d="M 122.5,9.5 C 127.511,9.33407 132.511,9.50074 137.5,10C 141.763,12.6474 142.43,15.9807 139.5,20C 143.305,23.6176 143.305,27.2843 139.5,31C 134.254,32.5059 128.921,32.8392 123.5,32C 123,31.5 122.5,31 122,30.5C 121.205,23.4197 121.372,16.4197 122.5,9.5 Z M 130.5,13.5 C 132.532,14.0478 133.532,15.3812 133.5,17.5C 132.167,17.5 130.833,17.5 129.5,17.5C 129.433,16.0413 129.766,14.7079 130.5,13.5 Z M 129.5,22.5 C 131.665,22.1159 133.332,22.7826 134.5,24.5C 133.332,26.2174 131.665,26.8841 129.5,26.5C 129.5,25.1667 129.5,23.8333 129.5,22.5 Z"/></g>
<g><path style="opacity:0.998" fill="#5c6561" d="M 154.5,25.5 C 153.167,25.5 151.833,25.5 150.5,25.5C 149.744,22.9284 150.577,20.5951 153,18.5C 153.667,16.8333 153.667,15.1667 153,13.5C 152.31,17.1899 150.143,18.3566 146.5,17C 144.352,14.9251 144.018,12.5918 145.5,10C 149.852,8.1053 154.185,8.1053 158.5,10C 162.405,14.4919 162.239,18.9919 158,23.5C 156.887,24.305 155.721,24.9717 154.5,25.5 Z"/></g>
<g><path style="opacity:0.999" fill="#535c59" d="M 7.5,35.5 C 7.16667,35.5 6.83333,35.5 6.5,35.5C 1.44426,31.6662 -0.222406,26.6662 1.5,20.5C 1.04311,19.7025 0.376442,19.3691 -0.5,19.5C -0.5,18.5 -0.5,17.5 -0.5,16.5C 0.659436,15.5442 1.8261,14.5442 3,13.5C 3.77203,13.6448 4.4387,13.9781 5,14.5C 9.911,10.2361 15.2443,9.56946 21,12.5C 21.6667,13.5 21.6667,14.5 21,15.5C 16.7245,22.4051 12.2245,29.0718 7.5,35.5 Z"/></g>
<g><path style="opacity:0.941" fill="#dd7973" d="M 21.5,33.5 C 21.1667,33.5 20.8333,33.5 20.5,33.5C 19.5489,32.0813 19.2155,30.4147 19.5,28.5C 22.3582,26.0675 23.1916,23.0675 22,19.5C 24.3679,21.6844 25.0346,24.3511 24,27.5C 22.3375,29.1579 21.5041,31.1579 21.5,33.5 Z"/></g>
<g><path style="opacity:0.259" fill="#d6d9d8" d="M 56.5,24.5 C 54.5,24.5 52.5,24.5 50.5,24.5C 50.7845,26.4147 50.4511,28.0813 49.5,29.5C 49.5,27.5 49.5,25.5 49.5,23.5C 52.0593,23.1984 54.3926,23.5318 56.5,24.5 Z"/></g>
<g><path style="opacity:0.231" fill="#c9ccca" d="M 150.5,25.5 C 151.833,25.5 153.167,25.5 154.5,25.5C 154.5,26.1667 154.5,26.8333 154.5,27.5C 153.167,27.5 151.833,27.5 150.5,27.5C 150.5,26.8333 150.5,26.1667 150.5,25.5 Z"/></g>
<g><path style="opacity:0.992" fill="#636b68" d="M 150.5,27.5 C 151.833,27.5 153.167,27.5 154.5,27.5C 156.273,28.3143 156.773,29.6476 156,31.5C 152.543,33.2323 149.709,32.5657 147.5,29.5C 148.005,28.0815 149.005,27.4148 150.5,27.5 Z"/></g>
<g><path style="opacity:0.929" fill="#e38d89" d="M 19.5,28.5 C 17.9891,30.4758 17.1558,32.8091 17,35.5C 15.482,33.3863 15.1487,31.053 16,28.5C 17.117,27.0506 17.7837,25.3839 18,23.5C 19.2692,24.9047 19.7692,26.5714 19.5,28.5 Z"/></g>
<g><path style="opacity:0.886" fill="#e58f88" d="M 25.5,24.5 C 27.0229,23.2541 28.0229,23.7541 28.5,26C 26.515,29.055 25.6817,32.2216 26,35.5C 24.7638,34.6008 23.9304,33.4341 23.5,32C 24.3632,29.7735 25.3632,27.6068 26.5,25.5C 26.3764,24.8933 26.0431,24.56 25.5,24.5 Z"/></g>
<g><path style="opacity:0.349" fill="#efc3c3" d="M 20.5,33.5 C 20.8333,33.5 21.1667,33.5 21.5,33.5C 22.5037,36.105 22.1704,36.105 20.5,33.5 Z"/></g>
<g><path style="opacity:0.332" fill="#c0c4c2" d="M 6.5,35.5 C 6.83333,35.5 7.16667,35.5 7.5,35.5C 16.3178,36.4933 25.3178,36.8266 34.5,36.5C 34.7678,38.099 34.4345,39.4324 33.5,40.5C 33.5,39.5 33.5,38.5 33.5,37.5C 24.4355,36.8636 15.7688,37.5302 7.5,39.5C 6.56552,38.4324 6.23219,37.099 6.5,35.5 Z"/></g>
<g><path style="opacity:0.996" fill="#4b5551" d="M 33.5,40.5 C 33.1089,44.2207 31.4422,47.2207 28.5,49.5C 28.8693,51.9935 28.2027,52.6602 26.5,51.5C 23.7141,50.9503 20.8808,50.617 18,50.5C 16.3009,50.3866 15.1342,51.0532 14.5,52.5C 13.596,53.209 13.2627,54.209 13.5,55.5C 15.8333,55.5 18.1667,55.5 20.5,55.5C 21.5,55.5 22.5,55.5 23.5,55.5C 25.7659,55.8588 27.5993,55.1922 29,53.5C 29.765,55.0657 29.5983,56.3991 28.5,57.5C 26.0221,56.8359 23.3555,56.5025 20.5,56.5C 17.4098,56.5217 14.7432,57.1883 12.5,58.5C 12.6495,59.552 12.4828,60.552 12,61.5C 11.3333,62.8333 10.6667,62.8333 10,61.5C 10.0783,57.4085 10.9116,53.4085 12.5,49.5C 9.77974,46.7262 8.11307,43.3928 7.5,39.5C 15.7688,37.5302 24.4355,36.8636 33.5,37.5C 33.5,38.5 33.5,39.5 33.5,40.5 Z"/></g>
<g><path style="opacity:0.998" fill="#505956" d="M 44.5,38.5 C 48.8461,38.3343 53.1794,38.501 57.5,39C 62.1903,41.7294 63.1903,45.396 60.5,50C 63.1667,53.3333 63.1667,56.6667 60.5,60C 54.6978,61.7651 48.8644,61.9318 43,60.5C 42.3333,53.8333 42.3333,47.1667 43,40.5C 43.7172,39.9558 44.2172,39.2891 44.5,38.5 Z M 50.5,43.5 C 52.3464,43.2222 53.6798,43.8888 54.5,45.5C 53.6798,47.1112 52.3464,47.7778 50.5,47.5C 50.5,46.1667 50.5,44.8333 50.5,43.5 Z M 50.5,51.5 C 53.7643,51.7264 54.7643,53.2264 53.5,56C 52.552,56.4828 51.552,56.6495 50.5,56.5C 50.5,54.8333 50.5,53.1667 50.5,51.5 Z"/></g>
<g><path style="opacity:0.998" fill="#57605c" d="M 103.5,38.5 C 105.467,38.2606 107.301,38.5939 109,39.5C 109.333,41.8333 109.667,44.1667 110,46.5C 118.473,44.305 121.807,47.6383 120,56.5C 115.442,63.1434 109.776,64.1434 103,59.5C 101.419,53.2774 101.085,46.9441 102,40.5C 102.717,39.9558 103.217,39.2891 103.5,38.5 Z M 109.5,50.5 C 110.496,50.4142 111.329,50.7476 112,51.5C 112.82,53.728 112.487,55.728 111,57.5C 109.648,55.4062 109.148,53.0728 109.5,50.5 Z"/></g>
<g><path style="opacity:0.999" fill="#57605c" d="M 68.5,45.5 C 72.0876,46.0291 75.5876,46.0291 79,45.5C 80.7106,45.4393 82.044,46.1059 83,47.5C 83.7991,52.0868 83.6324,56.5868 82.5,61C 78.8046,61.3179 75.1379,61.8179 71.5,62.5C 67.0448,61.2973 64.7115,58.2973 64.5,53.5C 64.8922,50.2992 66.2256,47.6326 68.5,45.5 Z M 73.5,50.5 C 75.9783,52.4827 76.1449,54.816 74,57.5C 72.4824,55.1874 72.3157,52.854 73.5,50.5 Z"/></g>
<g><path style="opacity:0.997" fill="#59625e" d="M 87.5,45.5 C 91.1568,46.6418 94.8235,46.8085 98.5,46C 101.167,48 101.167,50 98.5,52C 97.1011,52.5946 95.7678,52.4279 94.5,51.5C 93.7964,54.7041 93.1298,57.8708 92.5,61C 90.2305,61.7581 88.0639,61.5914 86,60.5C 84.9548,55.2145 85.4548,50.2145 87.5,45.5 Z"/></g>
<g><path style="opacity:0.998" fill="#565f5b" d="M 127.5,45.5 C 131.584,45.0431 135.417,45.7098 139,47.5C 139.808,49.5787 139.641,51.5787 138.5,53.5C 135.891,54.2305 133.224,54.7305 130.5,55C 131.263,55.9435 132.263,56.4435 133.5,56.5C 136.02,55.1 138.354,55.2667 140.5,57C 135.857,63.0313 130.357,63.8646 124,59.5C 121.133,53.6297 122.3,48.9631 127.5,45.5 Z M 130.5,49.5 C 131.833,49.5 132.5,50.1667 132.5,51.5C 132.5,50.1667 131.833,49.5 130.5,49.5 Z"/></g>
<g><path style="opacity:0.998" fill="#5a635f" d="M 146.5,45.5 C 149.85,45.335 153.183,45.5017 156.5,46C 159.917,48.321 160.25,50.9876 157.5,54C 155.527,54.4955 153.527,54.6621 151.5,54.5C 151.66,52.8008 151.494,51.1341 151,49.5C 148.949,51.8091 149.116,53.9757 151.5,56C 154.157,56.1747 156.824,56.0081 159.5,55.5C 159.099,59.0698 157.099,61.2364 153.5,62C 143.564,62.4047 140.064,57.9047 143,48.5C 144.145,47.3636 145.312,46.3636 146.5,45.5 Z"/></g>
<g><path style="opacity:0.996" fill="#555e5a" d="M 163.5,45.5 C 165.467,45.2606 167.301,45.5939 169,46.5C 169.179,49.5535 169.679,52.5535 170.5,55.5C 171.196,52.4436 172.03,49.4436 173,46.5C 174.726,45.4238 176.559,45.2571 178.5,46C 179.471,51.0717 179.805,56.2384 179.5,61.5C 176.882,62.7849 174.382,62.4515 172,60.5C 164.381,63.7013 160.881,61.2013 161.5,53C 161.303,50.1755 161.969,47.6755 163.5,45.5 Z"/></g>
<g><path style="opacity:0.995" fill="#565f5c" d="M 199.5,47.5 C 199.5,49.1667 199.5,50.8333 199.5,52.5C 198.5,52.8333 197.833,53.5 197.5,54.5C 198.167,54.8333 198.833,55.1667 199.5,55.5C 199.5,56.5 199.5,57.5 199.5,58.5C 194.999,63.0312 189.999,63.5312 184.5,60C 180.55,54.4467 181.55,49.78 187.5,46C 191.731,45.0805 195.731,45.5805 199.5,47.5 Z M 190.5,49.5 C 191.833,49.5 192.5,50.1667 192.5,51.5C 192.5,50.1667 191.833,49.5 190.5,49.5 Z M 197.5,54.5 C 195.34,56.7874 193.006,56.954 190.5,55C 192.81,54.5034 195.143,54.3367 197.5,54.5 Z"/></g>
<g><path style="opacity:0.22" fill="#c8cbca" d="M 130.5,49.5 C 130.5,50.8333 131.167,51.5 132.5,51.5C 131.791,52.404 130.791,52.7373 129.5,52.5C 129.263,51.209 129.596,50.209 130.5,49.5 Z"/></g>
<g><path style="opacity:0.163" fill="#cfd2d1" d="M 190.5,49.5 C 190.5,50.8333 191.167,51.5 192.5,51.5C 191.791,52.404 190.791,52.7373 189.5,52.5C 189.263,51.209 189.596,50.209 190.5,49.5 Z"/></g>
<g><path style="opacity:0.007" fill="#e7e8e8" d="M 14.5,52.5 C 16.1561,54.0603 18.1561,55.0603 20.5,55.5C 18.1667,55.5 15.8333,55.5 13.5,55.5C 13.2627,54.209 13.596,53.209 14.5,52.5 Z"/></g>
<g><path style="opacity:0.313" fill="#bbbfbd" d="M 28.5,57.5 C 23.0735,57.2175 17.7401,57.5509 12.5,58.5C 14.7432,57.1883 17.4098,56.5217 20.5,56.5C 23.3555,56.5025 26.0221,56.8359 28.5,57.5 Z"/></g>
<g><path style="opacity:0.98" fill="#898f8d" d="M 28.5,49.5 C 30.0994,52.7837 31.4327,56.2837 32.5,60C 32.3865,61.2798 31.7199,62.1131 30.5,62.5C 29.438,60.9783 28.7713,59.3117 28.5,57.5C 29.5983,56.3991 29.765,55.0657 29,53.5C 27.5993,55.1922 25.7659,55.8588 23.5,55.5C 24.6085,54.71 25.9419,54.21 27.5,54C 26.7476,53.3292 26.4142,52.4959 26.5,51.5C 28.2027,52.6602 28.8693,51.9935 28.5,49.5 Z"/></g>
</svg>
